<svg version="1.1" xmlns="http://www.w3.org/2000/svg" xmlns:xlink="http://www.w3.org/1999/xlink" width="81.74725" height="77" viewBox="0,0,81.74725,77"><g transform="translate(-13,-18.5)"><g data-paper-data="{&quot;isPaintingLayer&quot;:true}" fill-rule="nonzero" stroke-linecap="butt" stroke-linejoin="miter" stroke-miterlimit="10" stroke-dasharray="" stroke-dashoffset="0" style="mix-blend-mode: normal"><path d="M15.5,93v-72h76.74725v72z" fill="#ffffff" stroke="#3cffff" stroke-width="5"/><path d="M76.56057,50.4739c0,11.33938 -10.43459,20.53176 -23.30632,20.53176c-12.87172,0 -23.30632,-9.19238 -23.30632,-20.53176c0,-11.33938 10.43459,-20.53176 23.30632,-20.53176c12.87172,0 23.30632,9.19238 23.30632,20.53176z" fill="#ffffff" stroke="#c7ffff" stroke-width="5"/><path d="M60.60068,50.90165c0,3.54356 -3.25563,6.41617 -7.27166,6.41617c-4.01603,0 -7.27166,-2.87262 -7.27166,-6.41617c0,-3.54356 3.25563,-6.41617 7.27166,-6.41617c4.01603,0 7.27166,2.87262 7.27166,6.41617z" fill="#ffffff" stroke="#c7ffff" stroke-width="5"/><text transform="translate(33.21409,82.53031) scale(0.5,0.5)" font-size="40" xml:space="preserve" fill="#ff0000" fill-rule="nonzero" stroke="none" stroke-width="1" stroke-linecap="butt" stroke-linejoin="miter" stroke-miterlimit="10" stroke-dasharray="" stroke-dashoffset="0" font-family="Sans Serif" font-weight="normal" text-anchor="start" style="mix-blend-mode: normal"><tspan x="0" dy="0">Disc</tspan></text></g></g></svg>